HIERARCHY
ROOT pelvis
{
  OFFSET 0 100 0
  CHANNELS 6 Xposition Yposition Zposition Zrotation Xrotation Yrotation
  JOINT pelvis_right_femur
  {
    OFFSET -10.78128 -3.44521 -0.5502486
    CHANNELS 3 Zrotation Xrotation Yrotation
    JOINT right_femur_tibia
    {
      OFFSET -0.8047443 -44.0398 -0.1307829
      CHANNELS 3 Zrotation Xrotation Yrotation
      JOINT right_tibia_foot
      {
        OFFSET 3.006224 -47.83518 -5
        CHANNELS 3 Zrotation Xrotation Yrotation
        End Site
        {
          OFFSET 0 -5 15
        }
      }
    }
  }
  JOINT pelvis_left_femur
  {
    OFFSET 10.78128 -3.44521 -0.5502486
    CHANNELS 3 Zrotation Xrotation Yrotation
    JOINT left_femur_tibia
    {
      OFFSET 0.8047443 -44.0398 -0.1307829
      CHANNELS 3 Zrotation Xrotation Yrotation
      JOINT left_tibia_foot
      {
        OFFSET -4.370144 -48.10324 -4.275266
        CHANNELS 3 Zrotation Xrotation Yrotation
        End Site
        {
          OFFSET 0 -5 15
        }
      }
    }
  }
  JOINT pelvis_spine1
  {
    OFFSET 0 6.468898 -3.129235
    CHANNELS 3 Zrotation Xrotation Yrotation
    JOINT spine1
    {
      OFFSET 0 23.15396 4.99043
      CHANNELS 3 Zrotation Xrotation Yrotation
      JOINT spine2
      {
        OFFSET 0 20.79997 -5.064912
        CHANNELS 3 Zrotation Xrotation Yrotation
        JOINT neck
        {
          OFFSET 0 14.38658 9.616178
          CHANNELS 3 Zrotation Xrotation Yrotation
          End Site
          {
            OFFSET 0 20 0
          }
        }
      }
      JOINT right_manubrium
      {
        OFFSET -5.722621 16.35077 3.967754
        CHANNELS 3 Zrotation Xrotation Yrotation
        JOINT right_clavicle
        {
          OFFSET -13.16364 1.694482 -4.693211
          CHANNELS 3 Zrotation Xrotation Yrotation
          JOINT right_humerus
          {
            OFFSET -28.5034 -0.3100689 -2.792744
            CHANNELS 3 Zrotation Xrotation Yrotation
            JOINT right_radius
            {
              OFFSET -25.15693 0.02248979 -1.271978
              CHANNELS 3 Zrotation Xrotation Yrotation
              End Site
              {
                OFFSET -15 0 0
              }
            }
          }
        }
      }
      JOINT left_manubrium
      {
        OFFSET 5.722621 16.35077 3.967754
        CHANNELS 3 Zrotation Xrotation Yrotation
        JOINT left_clavicle
        {
          OFFSET 13.16364 1.694482 -4.693211
          CHANNELS 3 Zrotation Xrotation Yrotation
          JOINT left_humerus
          {
            OFFSET 29.39168 -1.063119 -2.237045
            CHANNELS 3 Zrotation Xrotation Yrotation
            JOINT left_radius
            {
              OFFSET 24.59957 -0.9528479 0.9047498
              CHANNELS 3 Zrotation Xrotation Yrotation
              End Site
              {
                OFFSET 15 -0 -0
              }
            }
          }
        }
      }
    }
  }
}
MOTION
Frames: 15
Frame Time: 0.0416666666667
43.17499 122.3094 407.2341 -4.174008 -14.322 -13.2538 7.737834 8.783497 3.034708 -0 24.87735 -0 -9.093849 -10.84959 -9.583993 4.509168 -9.572582 -3.627729 -0 17.91174 -0 11.12305 -0.4029833 8.427152 2.965405 -4.473782 6.706477 0.7753938 18.4774 -5.617827 3.465763 17.40955 -4.672206 -4.624924 -15.64927 1.547843 -1.340151 -37.08718 15.04095 93.64334 1.935676 -6.02652 -0 0 33.71415 -27.5898 25.69564 25.1439 -6.047669 -18.67712 -15.21691 -95.51567 12.09394 45.70789 0 0 -15.78096 -15.06221 14.35641 32.88845
43.53163 122.2717 412.9384 -4.388282 -14.25903 -14.12186 7.737834 8.783497 3.034708 -0 24.87735 -0 -9.093849 -10.84959 -9.583993 4.509168 -9.572582 -3.627729 -0 17.91174 -0 11.12305 -0.4029833 8.427152 2.965405 -4.473782 6.706477 0.7753938 18.4774 -5.617827 3.465763 17.40955 -4.672206 -4.624924 -15.64927 1.547843 -1.340151 -37.08718 15.04095 93.64334 1.935676 -6.02652 -0 0 33.71415 -27.5898 25.69564 25.1439 -6.047669 -18.67712 -15.21691 -95.51567 12.09394 45.70789 0 0 -15.78096 -15.06221 14.35641 32.88845
43.80426 122.234 418.6472 -4.601486 -14.19292 -14.98942 7.737834 8.783497 3.034708 -0 24.87735 -0 -9.093849 -10.84959 -9.583993 4.509168 -9.572582 -3.627729 -0 17.91174 -0 11.12305 -0.4029833 8.427152 2.965405 -4.473782 6.706477 0.7753938 18.4774 -5.617827 3.465763 17.40955 -4.672206 -4.624924 -15.64927 1.547843 -1.340151 -37.08718 15.04095 93.64334 1.935676 -6.02652 -0 0 33.71415 -27.5898 25.69564 25.1439 -6.047669 -18.67712 -15.21691 -95.51567 12.09394 45.70789 0 0 -15.78096 -15.06221 14.35641 32.88845
43.99281 122.1964 424.3595 -4.81357 -14.12369 -15.85646 7.737834 8.783497 3.034708 -0 24.87735 -0 -9.093849 -10.84959 -9.583993 4.509168 -9.572582 -3.627729 -0 17.91174 -0 11.12305 -0.4029833 8.427152 2.965405 -4.473782 6.706477 0.7753938 18.4774 -5.617827 3.465763 17.40955 -4.672206 -4.624924 -15.64927 1.547843 -1.340151 -37.08718 15.04095 93.64334 1.935676 -6.02652 -0 0 33.71415 -27.5898 25.69564 25.1439 -6.047669 -18.67712 -15.21691 -95.51567 12.09394 45.70789 0 0 -15.78096 -15.06221 14.35641 32.88845
44.09724 122.1587 430.0739 -5.024485 -14.05135 -16.72297 7.737834 8.783497 3.034708 -0 24.87735 -0 -9.093849 -10.84959 -9.583993 4.509168 -9.572582 -3.627729 -0 17.91174 -0 11.12305 -0.4029833 8.427152 2.965405 -4.473782 6.706477 0.7753938 18.4774 -5.617827 3.465763 17.40955 -4.672206 -4.624924 -15.64927 1.547843 -1.340151 -37.08718 15.04095 93.64334 1.935676 -6.02652 -0 0 33.71415 -27.5898 25.69564 25.1439 -6.047669 -18.67712 -15.21691 -95.51567 12.09394 45.70789 0 0 -15.78096 -15.06221 14.35641 32.88845
44.11753 122.121 435.7892 -5.234179 -13.97594 -17.58891 7.737834 8.783497 3.034708 -0 24.87735 -0 -9.093849 -10.84959 -9.583993 4.509168 -9.572582 -3.627729 -0 17.91174 -0 11.12305 -0.4029833 8.427152 2.965405 -4.473782 6.706477 0.7753938 18.4774 -5.617827 3.465763 17.40955 -4.672206 -4.624924 -15.64927 1.547843 -1.340151 -37.08718 15.04095 93.64334 1.935676 -6.02652 -0 0 33.71415 -27.5898 25.69564 25.1439 -6.047669 -18.67712 -15.21691 -95.51567 12.09394 45.70789 0 0 -15.78096 -15.06221 14.35641 32.88845
44.05368 122.0834 441.5042 -5.442606 -13.89745 -18.45428 7.737834 8.783497 3.034708 -0 24.87735 -0 -9.093849 -10.84959 -9.583993 4.509168 -9.572582 -3.627729 -0 17.91174 -0 11.12305 -0.4029833 8.427152 2.965405 -4.473782 6.706477 0.7753938 18.4774 -5.617827 3.465763 17.40955 -4.672206 -4.624924 -15.64927 1.547843 -1.340151 -37.08718 15.04095 93.64334 1.935676 -6.02652 -0 0 33.71415 -27.5898 25.69564 25.1439 -6.047669 -18.67712 -15.21691 -95.51567 12.09394 45.70789 0 0 -15.78096 -15.06221 14.35641 32.88845
43.9057 122.0457 447.2177 -5.649717 -13.81592 -19.31905 7.737834 8.783497 3.034708 -0 24.87735 -0 -9.093849 -10.84959 -9.583993 4.509168 -9.572582 -3.627729 -0 17.91174 -0 11.12305 -0.4029833 8.427152 2.965405 -4.473782 6.706477 0.7753938 18.4774 -5.617827 3.465763 17.40955 -4.672206 -4.624924 -15.64927 1.547843 -1.340151 -37.08718 15.04095 93.64334 1.935676 -6.02652 -0 0 33.71415 -27.5898 25.69564 25.1439 -6.047669 -18.67712 -15.21691 -95.51567 12.09394 45.70789 0 0 -15.78096 -15.06221 14.35641 32.88845
43.67361 122.008 452.9283 -5.855464 -13.73137 -20.1832 7.737834 8.783497 3.034708 -0 24.87735 -0 -9.093849 -10.84959 -9.583993 4.509168 -9.572582 -3.627729 -0 17.91174 -0 11.12305 -0.4029833 8.427152 2.965405 -4.473782 6.706477 0.7753938 18.4774 -5.617827 3.465763 17.40955 -4.672206 -4.624924 -15.64927 1.547843 -1.340151 -37.08718 15.04095 93.64334 1.935676 -6.02652 -0 0 33.71415 -27.5898 25.69564 25.1439 -6.047669 -18.67712 -15.21691 -95.51567 12.09394 45.70789 0 0 -15.78096 -15.06221 14.35641 32.88845
43.35749 121.9703 458.6349 -6.0598 -13.64381 -21.04672 7.737834 8.783497 3.034708 -0 24.87735 -0 -9.093849 -10.84959 -9.583993 4.509168 -9.572582 -3.627729 -0 17.91174 -0 11.12305 -0.4029833 8.427152 2.965405 -4.473782 6.706477 0.7753938 18.4774 -5.617827 3.465763 17.40955 -4.672206 -4.624924 -15.64927 1.547843 -1.340151 -37.08718 15.04095 93.64334 1.935676 -6.02652 -0 0 33.71415 -27.5898 25.69564 25.1439 -6.047669 -18.67712 -15.21691 -95.51567 12.09394 45.70789 0 0 -15.78096 -15.06221 14.35641 32.88845
42.95738 121.9327 464.3363 -6.262679 -13.55328 -21.90959 7.737834 8.783497 3.034708 -0 24.87735 -0 -9.093849 -10.84959 -9.583993 4.509168 -9.572582 -3.627729 -0 17.91174 -0 11.12305 -0.4029833 8.427152 2.965405 -4.473782 6.706477 0.7753938 18.4774 -5.617827 3.465763 17.40955 -4.672206 -4.624924 -15.64927 1.547843 -1.340151 -37.08718 15.04095 93.64334 1.935676 -6.02652 -0 0 33.71415 -27.5898 25.69564 25.1439 -6.047669 -18.67712 -15.21691 -95.51567 12.09394 45.70789 0 0 -15.78096 -15.06221 14.35641 32.88845
42.47337 121.895 470.0311 -6.464055 -13.45978 -22.77178 7.737834 8.783497 3.034708 -0 24.87735 -0 -9.093849 -10.84959 -9.583993 4.509168 -9.572582 -3.627729 -0 17.91174 -0 11.12305 -0.4029833 8.427152 2.965405 -4.473782 6.706477 0.7753938 18.4774 -5.617827 3.465763 17.40955 -4.672206 -4.624924 -15.64927 1.547843 -1.340151 -37.08718 15.04095 93.64334 1.935676 -6.02652 -0 0 33.71415 -27.5898 25.69564 25.1439 -6.047669 -18.67712 -15.21691 -95.51567 12.09394 45.70789 0 0 -15.78096 -15.06221 14.35641 32.88845
41.90558 121.8573 475.7182 -6.663882 -13.36335 -23.6333 7.737834 8.783497 3.034708 -0 24.87735 -0 -9.093849 -10.84959 -9.583993 4.509168 -9.572582 -3.627729 -0 17.91174 -0 11.12305 -0.4029833 8.427152 2.965405 -4.473782 6.706477 0.7753938 18.4774 -5.617827 3.465763 17.40955 -4.672206 -4.624924 -15.64927 1.547843 -1.340151 -37.08718 15.04095 93.64334 1.935676 -6.02652 -0 0 33.71415 -27.5898 25.69564 25.1439 -6.047669 -18.67712 -15.21691 -95.51567 12.09394 45.70789 0 0 -15.78096 -15.06221 14.35641 32.88845
41.25413 121.8197 481.3963 -6.862116 -13.26401 -24.49412 7.737834 8.783497 3.034708 -0 24.87735 -0 -9.093849 -10.84959 -9.583993 4.509168 -9.572582 -3.627729 -0 17.91174 -0 11.12305 -0.4029833 8.427152 2.965405 -4.473782 6.706477 0.7753938 18.4774 -5.617827 3.465763 17.40955 -4.672206 -4.624924 -15.64927 1.547843 -1.340151 -37.08718 15.04095 93.64334 1.935676 -6.02652 -0 0 33.71415 -27.5898 25.69564 25.1439 -6.047669 -18.67712 -15.21691 -95.51567 12.09394 45.70789 0 0 -15.78096 -15.06221 14.35641 32.88845
40.51915 121.782 487.0642 -7.058714 -13.16178 -25.35422 7.737834 8.783497 3.034708 -0 24.87735 -0 -9.093849 -10.84959 -9.583993 4.509168 -9.572582 -3.627729 -0 17.91174 -0 11.12305 -0.4029833 8.427152 2.965405 -4.473782 6.706477 0.7753938 18.4774 -5.617827 3.465763 17.40955 -4.672206 -4.624924 -15.64927 1.547843 -1.340151 -37.08718 15.04095 93.64334 1.935676 -6.02652 -0 0 33.71415 -27.5898 25.69564 25.1439 -6.047669 -18.67712 -15.21691 -95.51567 12.09394 45.70789 0 0 -15.78096 -15.06221 14.35641 32.88845
